<?xml version="1.0" standalone="no"?>
<!DOCTYPE svg PUBLIC "-//W3C//DTD SVG 20010904//EN"
 "http://www.w3.org/TR/2001/REC-SVG-20010904/DTD/svg10.dtd">
<svg version="1.0" xmlns="http://www.w3.org/2000/svg"
 width="192.000000pt" height="192.000000pt" viewBox="0 0 192.000000 192.000000"
 preserveAspectRatio="xMidYMid meet">

<g transform="translate(0.000000,192.000000) scale(0.100000,-0.100000)"
fill="#dc3545" stroke="none">
<path d="M810 1715 c0 -3 13 -23 30 -43 16 -20 37 -57 46 -82 21 -59 24 -222
5 -270 -28 -68 -101 -157 -255 -309 -135 -133 -161 -163 -191 -226 -89 -185
-10 -346 237 -483 83 -46 194 -92 221 -92 6 0 -21 33 -60 73 -100 102 -118
141 -118 248 0 80 3 91 39 162 21 42 69 114 107 159 107 130 200 265 227 331
52 129 3 269 -145 414 -81 80 -143 131 -143 118z"/>
<path d="M1245 1202 c0 -70 -4 -85 -37 -153 -21 -40 -72 -114 -114 -164 -170
-202 -209 -277 -202 -401 2 -55 9 -79 28 -107 l25 -37 5 53 c9 84 40 137 147
249 110 115 154 178 183 263 35 101 23 296 -22 358 -11 15 -13 5 -13 -61z"/>
<path d="M1331 745 c-2 -85 -36 -140 -168 -271 -103 -103 -121 -125 -131 -166
-19 -74 -15 -83 18 -45 16 19 74 64 127 100 123 82 160 118 191 186 29 63 26
115 -12 195 l-24 51 -1 -50z"/>
</g>
</svg>
